<svg width="32" height="32" viewBox="0 0 32 32" fill="none" xmlns="http://www.w3.org/2000/svg">
<path d="M24.6668 27.9997C26.5078 27.9997 28.0002 26.5073 28.0002 24.6663C28.0002 22.8254 26.5078 21.333 24.6668 21.333C22.8259 21.333 21.3335 22.8254 21.3335 24.6663C21.3335 26.5073 22.8259 27.9997 24.6668 27.9997Z" stroke="#191919" stroke-width="1.5" stroke-linecap="round" stroke-linejoin="round"/>
<path d="M7.33333 27.9997C9.17428 27.9997 10.6667 26.5073 10.6667 24.6663C10.6667 22.8254 9.17428 21.333 7.33333 21.333C5.49238 21.333 4 22.8254 4 24.6663C4 26.5073 5.49238 27.9997 7.33333 27.9997Z" stroke="#191919" stroke-width="1.5" stroke-linecap="round" stroke-linejoin="round"/>
<path d="M21.3335 10.667H26.6668L30.6668 14.667V21.3337H21.3335V10.667Z" stroke="#191919" stroke-width="1.5" stroke-linecap="round" stroke-linejoin="round"/>
<path d="M21.3335 4H1.3335V21.3333H21.3335V4Z" stroke="#191919" stroke-width="1.5" stroke-linecap="round" stroke-linejoin="round"/>
</svg>
