<svg width="33" height="32" viewBox="0 0 33 32" fill="none" xmlns="http://www.w3.org/2000/svg">
<path d="M29.8332 10.4264C29.8396 10.342 29.8396 10.2573 29.8332 10.173V10.173L27.1665 3.50636C27.0624 3.24283 26.877 3.01934 26.6372 2.8683C26.3975 2.71726 26.1158 2.64652 25.8332 2.66636H7.1665C6.89947 2.6661 6.6385 2.74603 6.41742 2.8958C6.19633 3.04557 6.02531 3.25827 5.9265 3.50636L3.25984 10.173C3.25341 10.2573 3.25341 10.342 3.25984 10.4264C3.21553 10.5006 3.18398 10.5817 3.1665 10.6664V10.6664C3.18134 11.588 3.43481 12.4901 3.90216 13.2846C4.36952 14.0791 5.03482 14.7389 5.83317 15.1997V27.9997C5.83317 28.3533 5.97365 28.6925 6.2237 28.9425C6.47374 29.1925 6.81288 29.333 7.1665 29.333H25.8332C26.1868 29.333 26.5259 29.1925 26.776 28.9425C27.026 28.6925 27.1665 28.3533 27.1665 27.9997V15.253C27.9726 14.7877 28.6428 14.1195 29.1106 13.3148C29.5785 12.5102 29.8276 11.5971 29.8332 10.6664V10.6664C29.8457 10.5868 29.8457 10.5059 29.8332 10.4264V10.4264ZM17.8332 26.6664H15.1665V21.333H17.8332V26.6664ZM24.4998 26.6664H20.4998V19.9997C20.4998 19.6461 20.3594 19.3069 20.1093 19.0569C19.8593 18.8068 19.5201 18.6664 19.1665 18.6664H13.8332C13.4795 18.6664 13.1404 18.8068 12.8904 19.0569C12.6403 19.3069 12.4998 19.6461 12.4998 19.9997V26.6664H8.49984V15.9997C9.25913 15.9954 10.0088 15.829 10.6986 15.5117C11.3884 15.1944 12.0025 14.7335 12.4998 14.1597C13.0003 14.7272 13.6158 15.1817 14.3055 15.493C14.9952 15.8043 15.7432 15.9654 16.4998 15.9654C17.2565 15.9654 18.0045 15.8043 18.6942 15.493C19.3838 15.1817 19.9993 14.7272 20.4998 14.1597C20.9972 14.7335 21.6113 15.1944 22.3011 15.5117C22.9909 15.829 23.7405 15.9954 24.4998 15.9997V26.6664ZM24.4998 13.333C23.7926 13.333 23.1143 13.0521 22.6142 12.552C22.1141 12.0519 21.8332 11.3736 21.8332 10.6664C21.8332 10.3127 21.6927 9.9736 21.4426 9.72355C21.1926 9.4735 20.8535 9.33302 20.4998 9.33302C20.1462 9.33302 19.8071 9.4735 19.557 9.72355C19.307 9.9736 19.1665 10.3127 19.1665 10.6664C19.1665 11.3736 18.8856 12.0519 18.3855 12.552C17.8854 13.0521 17.2071 13.333 16.4998 13.333C15.7926 13.333 15.1143 13.0521 14.6142 12.552C14.1141 12.0519 13.8332 11.3736 13.8332 10.6664C13.8332 10.3127 13.6927 9.9736 13.4426 9.72355C13.1926 9.4735 12.8535 9.33302 12.4998 9.33302C12.1462 9.33302 11.8071 9.4735 11.557 9.72355C11.307 9.9736 11.1665 10.3127 11.1665 10.6664C11.1796 11.0165 11.1237 11.3659 11.0018 11.6945C10.8799 12.023 10.6945 12.3244 10.4562 12.5813C10.2178 12.8382 9.93122 13.0456 9.61271 13.1918C9.2942 13.3379 8.95003 13.4199 8.59984 13.433C7.89259 13.4595 7.20378 13.204 6.68493 12.7227C6.42802 12.4843 6.22057 12.1977 6.07443 11.8792C5.92828 11.5607 5.8463 11.2165 5.83317 10.8664L8.07317 5.33302H24.9265L27.1665 10.8664C27.116 11.5384 26.8129 12.1663 26.3181 12.624C25.8234 13.0816 25.1738 13.3349 24.4998 13.333V13.333Z" fill="#191919" stroke="white"/>
</svg>
