<svg width="32" height="32" viewBox="0 0 32 32" fill="none" xmlns="http://www.w3.org/2000/svg">
<circle cx="16" cy="16" r="16" fill="white"/>
<path d="M23.3666 9.84123C22.941 9.41541 22.4356 9.07761 21.8794 8.84714C21.3232 8.61667 20.727 8.49805 20.1249 8.49805C19.5229 8.49805 18.9267 8.61667 18.3705 8.84714C17.8143 9.07761 17.3089 9.41541 16.8833 9.84123L15.9999 10.7246L15.1166 9.84123C14.2569 8.98149 13.0908 8.49849 11.8749 8.49849C10.6591 8.49849 9.49301 8.98149 8.63327 9.84123C7.77353 10.701 7.29053 11.867 7.29053 13.0829C7.29053 14.2988 7.77353 15.4648 8.63327 16.3246L9.5166 17.2079L15.9999 23.6912L22.4833 17.2079L23.3666 16.3246C23.7924 15.8989 24.1302 15.3936 24.3607 14.8374C24.5912 14.2811 24.7098 13.685 24.7098 13.0829C24.7098 12.4808 24.5912 11.8847 24.3607 11.3284C24.1302 10.7722 23.7924 10.2669 23.3666 9.84123V9.84123Z" stroke="#E31C79" stroke-width="2" stroke-linecap="round" stroke-linejoin="round"/>
<path d="M12 8.5L16 10.5L17.5 9.5L19.5 9H21L23.5 10.5L24.5 13.5L22.5 17.5L15.5 23.5L9 16.5L7.5 13L8.5 10L12 8.5Z" fill="#E31C79"/>
</svg>
