<svg width="32" height="32" viewBox="0 0 32 32" fill="none" xmlns="http://www.w3.org/2000/svg">
<rect width="32" height="32" rx="16" fill="white"/>
<path d="M24.8401 8.60987C24.3294 8.09888 23.7229 7.69352 23.0555 7.41696C22.388 7.14039 21.6726 6.99805 20.9501 6.99805C20.2276 6.99805 19.5122 7.14039 18.8448 7.41696C18.1773 7.69352 17.5709 8.09888 17.0601 8.60987L16.0001 9.66987L14.9401 8.60987C13.9084 7.57818 12.5092 6.99858 11.0501 6.99858C9.59109 6.99858 8.19181 7.57818 7.16012 8.60987C6.12843 9.64156 5.54883 11.0408 5.54883 12.4999C5.54883 13.9589 6.12843 15.3582 7.16012 16.3899L16.0001 25.2299L24.8401 16.3899C25.3511 15.8791 25.7565 15.2727 26.033 14.6052C26.3096 13.9378 26.4519 13.2224 26.4519 12.4999C26.4519 11.7774 26.3096 11.062 26.033 10.3945C25.7565 9.72706 25.3511 9.12063 24.8401 8.60987Z" stroke="#E31C79" stroke-width="1.5" stroke-linecap="round" stroke-linejoin="round"/>
</svg>
