<svg width="16" height="16" viewBox="0 0 16 16" fill="none" xmlns="http://www.w3.org/2000/svg">
<mask id="path-1-inside-1_4927_7773" fill="white">
<path d="M7.97538 1.4579C10.1108 1.4579 10.3631 1.45791 11.2062 1.50712C11.7148 1.5135 12.2185 1.60712 12.6954 1.78392C13.0448 1.91474 13.3588 2.12539 13.6123 2.39907C13.8842 2.65407 14.0947 2.96747 14.2277 3.31564C14.4046 3.79235 14.4982 4.2959 14.5046 4.8043C14.5477 5.64706 14.5538 5.89927 14.5538 8.03383C14.5538 10.1684 14.5538 10.4268 14.5046 11.2695C14.4977 11.7759 14.404 12.2773 14.2277 12.752C14.0969 13.1031 13.8862 13.419 13.6123 13.6747C13.3555 13.9445 13.0424 14.1545 12.6954 14.2899C12.2185 14.4667 11.7148 14.5603 11.2062 14.5667C10.3631 14.6036 10.1108 14.6098 7.97538 14.6098C5.84 14.6098 5.58769 14.6098 4.73846 14.5667C4.23192 14.5597 3.73031 14.4661 3.25538 14.2899C2.90902 14.1505 2.59582 13.94 2.33609 13.6719C2.07636 13.4038 1.8759 13.0841 1.74769 12.7336C1.5743 12.2582 1.48275 11.757 1.47692 11.2511C1.43384 10.4083 1.42769 10.1561 1.42769 8.01538C1.42769 5.87466 1.42769 5.6286 1.47692 4.78585C1.48229 4.27789 1.57385 3.77452 1.74769 3.29718C1.88278 2.95008 2.09291 2.6371 2.36307 2.38062C2.61536 2.10552 2.92972 1.89462 3.28 1.76547C3.75492 1.58924 4.25653 1.49563 4.76308 1.48867C5.61231 1.45176 5.86462 1.43944 8 1.43944L7.97538 1.4579ZM8 0C5.82769 0 5.53846 -8.25894e-06 4.70154 0.0492036C4.03708 0.0610901 3.37949 0.185904 2.75692 0.418296C2.22495 0.621946 1.74245 0.936495 1.34153 1.34102C0.934624 1.74235 0.619685 2.22717 0.418457 2.76201C0.18585 3.38217 0.0609764 4.0375 0.0492272 4.69972C0.00615028 5.55477 0 5.82545 0 7.99692C0 10.1684 -3.56711e-06 10.4575 0.0492272 11.2941C0.0611184 11.9583 0.185976 12.6156 0.418457 13.238C0.619946 13.7709 0.93491 14.2536 1.34153 14.6528C1.7392 15.0613 2.22262 15.3765 2.75692 15.5755C3.37986 15.8074 4.03701 15.9342 4.70154 15.9508C5.55692 15.9877 5.82769 16 8 16C10.1723 16 10.4615 16 11.2985 15.9508C11.9629 15.9336 12.62 15.8068 13.2431 15.5755C13.7774 15.3765 14.2608 15.0613 14.6585 14.6528C15.0651 14.2536 15.38 13.7709 15.5815 13.238C15.814 12.6156 15.9389 11.9583 15.9508 11.2941C15.9938 10.4452 16 10.1684 16 7.99692C16 5.82545 16 5.53632 15.9508 4.69972C15.939 4.0375 15.8141 3.38217 15.5815 2.76201C15.3803 2.22717 15.0654 1.74235 14.6585 1.34102C14.2575 0.936495 13.775 0.621946 13.2431 0.418296C12.6203 0.186479 11.9629 0.0616839 11.2985 0.0492036C10.4431 0.0122947 10.1723 0 8 0Z"/>
</mask>
<path d="M7.97538 1.4579C10.1108 1.4579 10.3631 1.45791 11.2062 1.50712C11.7148 1.5135 12.2185 1.60712 12.6954 1.78392C13.0448 1.91474 13.3588 2.12539 13.6123 2.39907C13.8842 2.65407 14.0947 2.96747 14.2277 3.31564C14.4046 3.79235 14.4982 4.2959 14.5046 4.8043C14.5477 5.64706 14.5538 5.89927 14.5538 8.03383C14.5538 10.1684 14.5538 10.4268 14.5046 11.2695C14.4977 11.7759 14.404 12.2773 14.2277 12.752C14.0969 13.1031 13.8862 13.419 13.6123 13.6747C13.3555 13.9445 13.0424 14.1545 12.6954 14.2899C12.2185 14.4667 11.7148 14.5603 11.2062 14.5667C10.3631 14.6036 10.1108 14.6098 7.97538 14.6098C5.84 14.6098 5.58769 14.6098 4.73846 14.5667C4.23192 14.5597 3.73031 14.4661 3.25538 14.2899C2.90902 14.1505 2.59582 13.94 2.33609 13.6719C2.07636 13.4038 1.8759 13.0841 1.74769 12.7336C1.5743 12.2582 1.48275 11.757 1.47692 11.2511C1.43384 10.4083 1.42769 10.1561 1.42769 8.01538C1.42769 5.87466 1.42769 5.6286 1.47692 4.78585C1.48229 4.27789 1.57385 3.77452 1.74769 3.29718C1.88278 2.95008 2.09291 2.6371 2.36307 2.38062C2.61536 2.10552 2.92972 1.89462 3.28 1.76547C3.75492 1.58924 4.25653 1.49563 4.76308 1.48867C5.61231 1.45176 5.86462 1.43944 8 1.43944L7.97538 1.4579ZM8 0C5.82769 0 5.53846 -8.25894e-06 4.70154 0.0492036C4.03708 0.0610901 3.37949 0.185904 2.75692 0.418296C2.22495 0.621946 1.74245 0.936495 1.34153 1.34102C0.934624 1.74235 0.619685 2.22717 0.418457 2.76201C0.18585 3.38217 0.0609764 4.0375 0.0492272 4.69972C0.00615028 5.55477 0 5.82545 0 7.99692C0 10.1684 -3.56711e-06 10.4575 0.0492272 11.2941C0.0611184 11.9583 0.185976 12.6156 0.418457 13.238C0.619946 13.7709 0.93491 14.2536 1.34153 14.6528C1.7392 15.0613 2.22262 15.3765 2.75692 15.5755C3.37986 15.8074 4.03701 15.9342 4.70154 15.9508C5.55692 15.9877 5.82769 16 8 16C10.1723 16 10.4615 16 11.2985 15.9508C11.9629 15.9336 12.62 15.8068 13.2431 15.5755C13.7774 15.3765 14.2608 15.0613 14.6585 14.6528C15.0651 14.2536 15.38 13.7709 15.5815 13.238C15.814 12.6156 15.9389 11.9583 15.9508 11.2941C15.9938 10.4452 16 10.1684 16 7.99692C16 5.82545 16 5.53632 15.9508 4.69972C15.939 4.0375 15.8141 3.38217 15.5815 2.76201C15.3803 2.22717 15.0654 1.74235 14.6585 1.34102C14.2575 0.936495 13.775 0.621946 13.2431 0.418296C12.6203 0.186479 11.9629 0.0616839 11.2985 0.0492036C10.4431 0.0122947 10.1723 0 8 0Z" fill="white"/>
<path d="M7.97538 1.4579L7.07564 0.257703L3.47377 2.9579H7.97538V1.4579ZM11.2062 1.50712L11.1187 3.00457L11.153 3.00657L11.1873 3.007L11.2062 1.50712ZM12.6954 1.78392L13.2213 0.379134L13.2168 0.377468L12.6954 1.78392ZM13.6123 2.39907L12.5119 3.4184L12.5477 3.45713L12.5863 3.49325L13.6123 2.39907ZM14.2277 3.31564L15.634 2.79386L15.6315 2.78703L15.6289 2.78023L14.2277 3.31564ZM14.5046 4.8043L13.0047 4.82314L13.0051 4.85202L13.0066 4.88087L14.5046 4.8043ZM14.5046 11.2695L13.0072 11.182L13.0052 11.2154L13.0048 11.2489L14.5046 11.2695ZM14.2277 12.752L15.6333 13.2758L15.6339 13.2742L14.2277 12.752ZM13.6123 13.6747L12.5886 12.5784L12.5564 12.6085L12.526 12.6404L13.6123 13.6747ZM12.6954 14.2899L13.2168 15.6963L13.2287 15.6919L13.2406 15.6873L12.6954 14.2899ZM11.2062 14.5667L11.1873 13.0668L11.1639 13.0671L11.1405 13.0681L11.2062 14.5667ZM4.73846 14.5667L4.81442 13.0686L4.78676 13.0672L4.75907 13.0668L4.73846 14.5667ZM3.25538 14.2899L2.6955 15.6815L2.71443 15.6891L2.73355 15.6962L3.25538 14.2899ZM1.74769 12.7336L0.338512 13.2476L0.338962 13.2488L1.74769 12.7336ZM1.47692 11.2511L2.97682 11.2338L2.97648 11.2041L2.97496 11.1745L1.47692 11.2511ZM1.47692 4.78585L2.97437 4.87332L2.97646 4.83755L2.97684 4.80172L1.47692 4.78585ZM1.74769 3.29718L0.349822 2.75316L0.343867 2.76846L0.338248 2.78389L1.74769 3.29718ZM2.36307 2.38062L3.39584 3.46846L3.43349 3.43271L3.46858 3.39445L2.36307 2.38062ZM3.28 1.76547L3.79891 3.17286L3.80183 3.17177L3.28 1.76547ZM4.76308 1.48867L4.78369 2.98852L4.80596 2.98822L4.82821 2.98725L4.76308 1.48867ZM8 1.43944L8.89974 2.63964L12.5016 -0.0605565H8V1.43944ZM4.70154 0.0492036L4.72837 1.54896L4.759 1.54842L4.78959 1.54662L4.70154 0.0492036ZM2.75692 0.418296L2.23234 -0.987041L2.22064 -0.982563L2.75692 0.418296ZM1.34153 1.34102L2.39485 2.40897L2.40092 2.40298L2.40693 2.39692L1.34153 1.34102ZM0.418457 2.76201L-0.985464 2.2338L-0.986002 2.23523L0.418457 2.76201ZM0.0492272 4.69972L1.54733 4.77519L1.54856 4.75077L1.54899 4.72633L0.0492272 4.69972ZM0.0492272 11.2941L1.54899 11.2673L1.54844 11.2366L1.54664 11.206L0.0492272 11.2941ZM0.418457 13.238L-0.98671 13.7629L-0.984604 13.7685L0.418457 13.238ZM1.34153 14.6528L2.41634 13.6065L2.40448 13.5943L2.39234 13.5824L1.34153 14.6528ZM2.75692 15.5755L2.23321 16.9811L2.23361 16.9813L2.75692 15.5755ZM4.70154 15.9508L4.7662 14.4522L4.75253 14.4516L4.73886 14.4512L4.70154 15.9508ZM11.2985 15.9508L11.2596 14.4513L11.235 14.4519L11.2104 14.4534L11.2985 15.9508ZM13.2431 15.5755L13.7649 16.9818L13.7668 16.9811L13.2431 15.5755ZM14.6585 14.6528L13.6077 13.5824L13.5955 13.5943L13.5837 13.6065L14.6585 14.6528ZM15.5815 13.238L16.9846 13.7685L16.9867 13.7629L15.5815 13.238ZM15.9508 11.2941L14.4527 11.2181L14.4514 11.2427L14.451 11.2673L15.9508 11.2941ZM15.9508 4.69972L14.451 4.72633L14.4516 4.75711L14.4534 4.78784L15.9508 4.69972ZM15.5815 2.76201L16.986 2.23523L16.9855 2.2338L15.5815 2.76201ZM14.6585 1.34102L13.5931 2.39692L13.5991 2.40298L13.6051 2.40897L14.6585 1.34102ZM13.2431 0.418296L13.7794 -0.982623L13.7664 -0.987461L13.2431 0.418296ZM11.2985 0.0492036L11.2338 1.54781L11.252 1.5486L11.2703 1.54894L11.2985 0.0492036ZM7.97538 2.9579C10.1194 2.9579 10.327 2.95836 11.1187 3.00457L11.2936 0.00966847C10.3991 -0.0425424 10.1021 -0.0421028 7.97538 -0.0421028V2.9579ZM11.1873 3.007C11.5243 3.01123 11.858 3.07326 12.174 3.19038L13.2168 0.377468C12.5789 0.140984 11.9052 0.0157723 11.225 0.0072376L11.1873 3.007ZM12.1695 3.18871C12.3 3.23757 12.4172 3.31624 12.5119 3.4184L14.7128 1.37975C14.3004 0.934542 13.7896 0.591905 13.2213 0.379142L12.1695 3.18871ZM12.5863 3.49325C12.6925 3.59284 12.7746 3.71519 12.8265 3.85105L15.6289 2.78023C15.4147 2.21975 15.076 1.71529 14.6384 1.3049L12.5863 3.49325ZM12.8214 3.83741C12.9385 4.15308 13.0005 4.48651 13.0047 4.82314L16.0045 4.78547C15.996 4.10529 15.8706 3.43162 15.634 2.79386L12.8214 3.83741ZM13.0066 4.88087C13.0475 5.68251 13.0538 5.9019 13.0538 8.03383H16.0538C16.0538 5.89663 16.0478 5.6116 16.0027 4.72773L13.0066 4.88087ZM13.0538 8.03383C13.0538 10.1772 13.0534 10.3908 13.0072 11.182L16.0021 11.357C16.0543 10.4628 16.0538 10.1596 16.0538 8.03383H13.0538ZM13.0048 11.2489C13.0001 11.5839 12.9382 11.9157 12.8215 12.2298L15.6339 13.2742C15.8698 12.6389 15.9952 11.9678 16.0045 11.2901L13.0048 11.2489ZM12.8221 12.2282C12.7725 12.3614 12.6925 12.4813 12.5886 12.5784L14.6361 14.7711C15.0798 14.3567 15.4212 13.8448 15.6333 13.2758L12.8221 12.2282ZM12.526 12.6404C12.4208 12.7509 12.2925 12.837 12.1502 12.8925L13.2406 15.6873C13.7924 15.472 14.2902 15.1381 14.6986 14.7091L12.526 12.6404ZM12.174 12.8834C11.858 13.0006 11.5243 13.0626 11.1873 13.0668L11.225 16.0666C11.9052 16.058 12.5789 15.9328 13.2168 15.6963L12.174 12.8834ZM11.1405 13.0681C10.3321 13.1035 10.1071 13.1098 7.97538 13.1098V16.1098C10.1144 16.1098 10.3941 16.1037 11.2718 16.0653L11.1405 13.0681ZM7.97538 13.1098C5.83269 13.1098 5.61905 13.1094 4.81442 13.0686L4.6625 16.0648C5.55633 16.1101 5.84731 16.1098 7.97538 16.1098V13.1098ZM4.75907 13.0668C4.42369 13.0622 4.0916 13.0002 3.77721 12.8836L2.73355 15.6962C3.36901 15.932 4.04015 16.0572 4.71784 16.0666L4.75907 13.0668ZM3.81526 12.8983C3.66384 12.8374 3.52695 12.7453 3.41345 12.6282L1.25873 14.7156C1.6647 15.1346 2.1542 15.4637 2.6955 15.6815L3.81526 12.8983ZM3.41345 12.6282C3.29996 12.511 3.2124 12.3714 3.15642 12.2183L0.338962 13.2488C0.539389 13.7968 0.852764 14.2965 1.25873 14.7156L3.41345 12.6282ZM3.15687 12.2195C3.04157 11.9035 2.9807 11.5702 2.97682 11.2338L-0.022981 11.2683C-0.0151956 11.9438 0.107037 12.613 0.338513 13.2476L3.15687 12.2195ZM2.97496 11.1745C2.93399 10.3729 2.92769 10.1535 2.92769 8.01538H-0.0723078C-0.0723078 10.1586 -0.0663054 10.4437 -0.0211249 11.3276L2.97496 11.1745ZM2.92769 8.01538C2.92769 5.86607 2.92814 5.66468 2.97437 4.87332L-0.0205278 4.69837C-0.0727612 5.59253 -0.0723078 5.88325 -0.0723078 8.01538H2.92769ZM2.97684 4.80172C2.98041 4.4635 3.04138 4.12833 3.15713 3.81048L0.338248 2.78389C0.106326 3.42071 -0.0158268 4.09228 -0.0229967 4.76998L2.97684 4.80172ZM3.14556 3.84121C3.20048 3.7001 3.28592 3.57281 3.39584 3.46846L1.33031 1.29278C0.899903 1.7014 0.565079 2.20006 0.349822 2.75316L3.14556 3.84121ZM3.46858 3.39445C3.55943 3.29539 3.67267 3.2194 3.79891 3.17286L2.76108 0.358087C2.18677 0.569841 1.67129 0.915649 1.25757 1.36679L3.46858 3.39445ZM3.80183 3.17177C4.11622 3.05512 4.4483 2.99313 4.78369 2.98852L4.74246 -0.0111925C4.06476 -0.00187791 3.39363 0.123368 2.75816 0.359167L3.80183 3.17177ZM4.82821 2.98725C5.64835 2.95161 5.8774 2.93944 8 2.93944V-0.0605565C5.85183 -0.0605565 5.57627 -0.0480927 4.69795 -0.00991946L4.82821 2.98725ZM7.10026 0.23925L7.07564 0.257703L8.87513 2.65809L8.89974 2.63964L7.10026 0.23925ZM8 -1.5C5.83799 -1.5 5.50267 -1.50049 4.61349 -1.44821L4.78959 1.54662C5.57426 1.50048 5.81739 1.5 8 1.5V-1.5ZM4.67471 -1.45056C3.84019 -1.43563 3.01429 -1.27887 2.23236 -0.986992L3.28148 1.82358C3.7447 1.65068 4.23398 1.55781 4.72837 1.54896L4.67471 -1.45056ZM2.22064 -0.982563C1.48984 -0.702798 0.82697 -0.270669 0.276138 0.285115L2.40693 2.39692C2.65794 2.14366 2.96005 1.94669 3.2932 1.81915L2.22064 -0.982563ZM0.288219 0.273063C-0.273212 0.826797 -0.707785 1.49576 -0.985464 2.2338L1.82238 3.29022C1.94716 2.95857 2.14246 2.6579 2.39485 2.40897L0.288219 0.273063ZM-0.986002 2.23523C-1.27865 3.01546 -1.43575 3.83995 -1.45054 4.67311L1.54899 4.72633C1.55771 4.23506 1.65035 3.74888 1.82292 3.28878L-0.986002 2.23523ZM-1.44887 4.62425C-1.494 5.52002 -1.5 5.82328 -1.5 7.99692H1.5C1.5 5.82762 1.5063 5.58953 1.54733 4.77519L-1.44887 4.62425ZM-1.5 7.99692C-1.5 10.1581 -1.50049 10.4933 -1.44818 11.3822L1.54664 11.206C1.50048 10.4217 1.5 10.1787 1.5 7.99692H-1.5ZM-1.45053 11.321C-1.43559 12.1553 -1.27874 12.9811 -0.986699 13.7629L1.82361 12.7131C1.6507 12.2502 1.55783 11.7613 1.54899 11.2673L-1.45053 11.321ZM-0.984604 13.7685C-0.70621 14.5048 -0.271046 15.1718 0.290724 15.7232L2.39234 13.5824C2.14087 13.3355 1.9461 13.037 1.82152 12.7075L-0.984604 13.7685ZM0.266725 15.6991C0.819265 16.2667 1.49092 16.7046 2.23321 16.9811L3.28064 14.1699C2.95433 14.0484 2.65913 13.8559 2.41634 13.6065L0.266725 15.6991ZM2.23361 16.9813C3.01225 17.2712 3.83365 17.4296 4.66422 17.4503L4.73886 14.4512C4.24038 14.4388 3.74746 14.3437 3.28023 14.1698L2.23361 16.9813ZM4.63688 17.4494C5.52157 17.4876 5.81564 17.5 8 17.5V14.5C5.83974 14.5 5.59227 14.4878 4.7662 14.4522L4.63688 17.4494ZM8 17.5C10.162 17.5 10.4973 17.5005 11.3865 17.4482L11.2104 14.4534C10.4257 14.4995 10.1826 14.5 8 14.5V17.5ZM11.3373 17.4503C12.1668 17.4288 12.987 17.2705 13.7649 16.9818L12.7212 14.1693C12.2529 14.343 11.759 14.4383 11.2596 14.4513L11.3373 17.4503ZM13.7668 16.9811C14.5091 16.7046 15.1807 16.2667 15.7333 15.6991L13.5837 13.6065C13.3409 13.8559 13.0457 14.0484 12.7194 14.1699L13.7668 16.9811ZM15.7093 15.7232C16.271 15.1718 16.7062 14.5048 16.9846 13.7685L14.1785 12.7075C14.0539 13.037 13.8591 13.3355 13.6077 13.5824L15.7093 15.7232ZM16.9867 13.7629C17.2787 12.9811 17.4356 12.1553 17.4505 11.321L14.451 11.2673C14.4422 11.7613 14.3493 12.2502 14.1764 12.7131L16.9867 13.7629ZM17.4488 11.3701C17.494 10.48 17.5 10.1702 17.5 7.99692H14.5C14.5 10.1666 14.4937 10.4104 14.4527 11.2181L17.4488 11.3701ZM17.5 7.99692C17.5 5.83574 17.5005 5.50049 17.4482 4.6116L14.4534 4.78784C14.4995 5.57215 14.5 5.81516 14.5 7.99692H17.5ZM17.4505 4.67311C17.4358 3.83995 17.2786 3.01546 16.986 2.23523L14.1771 3.28878C14.3497 3.74888 14.4423 4.23506 14.451 4.72633L17.4505 4.67311ZM16.9855 2.2338C16.7078 1.49576 16.2732 0.826797 15.7118 0.273063L13.6051 2.40897C13.8575 2.6579 14.0528 2.95857 14.1776 3.29022L16.9855 2.2338ZM15.7239 0.285115C15.173 -0.270669 14.5102 -0.702798 13.7794 -0.982563L12.7068 1.81915C13.0399 1.94669 13.3421 2.14366 13.5931 2.39692L15.7239 0.285115ZM13.7664 -0.987461C12.9851 -1.27831 12.1602 -1.43487 11.3266 -1.45053L11.2703 1.54894C11.7655 1.55824 12.2556 1.65126 12.7198 1.82405L13.7664 -0.987461ZM11.3631 -1.4494C10.4784 -1.48758 10.1843 -1.5 8 -1.5V1.5C10.1603 1.5 10.4077 1.51217 11.2338 1.54781L11.3631 -1.4494Z" fill="white" mask="url(#path-1-inside-1_4927_7773)"/>
<path d="M7.97552 3.91211C7.16222 3.91211 6.3672 4.15327 5.69105 4.60507C5.01491 5.05687 4.48803 5.699 4.17707 6.45021C3.86612 7.20143 3.78507 8.02797 3.94419 8.82524C4.1033 9.62251 4.49542 10.3547 5.07094 10.9291C5.64646 11.5035 6.37951 11.8944 7.17732 12.0523C7.97514 12.2101 8.80187 12.1279 9.55291 11.8159C10.3039 11.504 10.9455 10.9763 11.3965 10.2998C11.8474 9.62321 12.0875 8.82813 12.0863 8.01515C12.0847 6.9264 11.6508 5.88279 10.8801 5.11349C10.1094 4.3442 9.06469 3.91211 7.97552 3.91211ZM7.97552 10.6787C7.44703 10.68 6.93006 10.5244 6.49004 10.2318C6.05003 9.9392 5.70675 9.52265 5.50366 9.03493C5.30057 8.54721 5.2468 8.01022 5.34916 7.49194C5.45152 6.97365 5.7054 6.49738 6.07867 6.1234C6.45193 5.74941 6.9278 5.49453 7.44605 5.39101C7.9643 5.2875 8.50162 5.34001 8.99 5.54189C9.47837 5.74377 9.89585 6.08597 10.1896 6.52514C10.4833 6.9643 10.6401 7.48071 10.6401 8.009C10.6401 8.71599 10.3596 9.39413 9.86006 9.89463C9.36052 10.3951 8.68278 10.6771 7.97552 10.6787Z" fill="white"/>
<path d="M13.2061 3.74674C13.2061 3.93654 13.1498 4.12208 13.0443 4.27989C12.9389 4.4377 12.7889 4.56069 12.6135 4.63332C12.4381 4.70595 12.2451 4.72496 12.0588 4.68793C11.8726 4.6509 11.7016 4.55951 11.5673 4.4253C11.4331 4.29109 11.3416 4.12011 11.3046 3.93396C11.2675 3.74781 11.2865 3.55485 11.3592 3.3795C11.4319 3.20415 11.5549 3.05428 11.7128 2.94884C11.8707 2.84339 12.0563 2.78711 12.2461 2.78711C12.5007 2.78711 12.7449 2.88821 12.925 3.06818C13.105 3.24814 13.2061 3.49223 13.2061 3.74674Z" fill="white"/>
</svg>
