<svg width="23" height="17" viewBox="0 0 23 17" fill="none" xmlns="http://www.w3.org/2000/svg">
<path d="M0 4H9.75L10.5 5.5H0.75L0 4ZM1 7H10.75L11.5 8.5H1.75L1 7ZM17.25 15C18.08 15 18.75 14.33 18.75 13.5C18.75 12.67 18.08 12 17.25 12C16.42 12 15.75 12.67 15.75 13.5C15.75 14.33 16.42 15 17.25 15ZM18.75 6H16.25V8.5H20.71L18.75 6ZM7.25 15C8.08 15 8.75 14.33 8.75 13.5C8.75 12.67 8.08 12 7.25 12C6.42 12 5.75 12.67 5.75 13.5C5.75 14.33 6.42 15 7.25 15ZM19.25 4.5L22.25 8.5V13.5H20.25C20.25 15.16 18.91 16.5 17.25 16.5C15.59 16.5 14.25 15.16 14.25 13.5H10.25C10.25 15.16 8.9 16.5 7.25 16.5C5.59 16.5 4.25 15.16 4.25 13.5H2.25V10H4.25V11.5H5.01C5.56 10.89 6.36 10.5 7.25 10.5C8.14 10.5 8.94 10.89 9.49 11.5H14.25V2.5H2.25C2.25 1.39 3.14 0.5 4.25 0.5H16.25V4.5H19.25Z" fill="#E6297D"/>
</svg>
