<svg width="48" height="48" viewBox="0 0 48 48" fill="none" xmlns="http://www.w3.org/2000/svg">
<path d="M22.9396 24.3535L23.2931 24L22.9396 23.6464L16.6502 17.357C16.5607 17.263 16.5112 17.1378 16.5123 17.0079C16.5135 16.8768 16.5661 16.7514 16.6588 16.6587C16.7515 16.566 16.8769 16.5134 17.008 16.5123C17.1379 16.5111 17.2631 16.5606 17.3571 16.6501L23.6465 22.9395L24 23.2931L24.3536 22.9395L30.6466 16.6465L30.6466 16.6466L30.6527 16.6403C30.6988 16.5926 30.754 16.5545 30.815 16.5283C30.876 16.5021 30.9416 16.4883 31.008 16.4877C31.0744 16.4871 31.1402 16.4998 31.2017 16.5249C31.2631 16.55 31.3189 16.5872 31.3659 16.6341C31.4128 16.6811 31.45 16.7369 31.4751 16.7983C31.5002 16.8598 31.5129 16.9256 31.5123 16.992C31.5117 17.0584 31.4979 17.124 31.4717 17.185C31.4455 17.246 31.4074 17.3012 31.3597 17.3473L31.3596 17.3473L31.3535 17.3534L25.0605 23.6464L24.7069 24L25.0605 24.3535L31.3535 30.6465L31.3534 30.6466L31.3597 30.6526C31.4074 30.6987 31.4455 30.7539 31.4717 30.8149C31.4979 30.8759 31.5117 30.9415 31.5123 31.0079C31.5129 31.0743 31.5002 31.1401 31.4751 31.2016C31.45 31.263 31.4128 31.3189 31.3659 31.3658C31.3189 31.4127 31.2631 31.4499 31.2017 31.475C31.1402 31.5002 31.0744 31.5128 31.008 31.5122C30.9416 31.5117 30.876 31.4979 30.815 31.4717C30.754 31.4454 30.6988 31.4074 30.6527 31.3596L30.6527 31.3596L30.6466 31.3534L24.3536 25.0604L24 24.7069L23.6465 25.0604L17.3571 31.3498C17.2631 31.4393 17.1379 31.4888 17.008 31.4877C16.8769 31.4865 16.7515 31.4339 16.6588 31.3412C16.5661 31.2485 16.5135 31.1231 16.5123 30.992C16.5112 30.8621 16.5607 30.7369 16.6502 30.6429L22.9396 24.3535Z" fill="#353535" stroke="#353535"/>
</svg>
